<svg xmlns="http://www.w3.org/2000/svg" xmlns:xlink="http://www.w3.org/1999/xlink" id="Layer_1" x="0" y="0" enable-background="new 0 0 150 150" version="1.1" viewBox="0 0 150 150" xml:space="preserve"><style type="text/css">.st1{fill:url(#SVGID_1_)}</style><g id="Layer_2_11_"><g id="Layer_1-2_10_"><linearGradient id="SVGID_1_" x1="5.13" x2="144.87" y1="847.63" y2="847.63" gradientTransform="matrix(1 0 0 1 0 -772.63)" gradientUnits="userSpaceOnUse"><stop offset="0" stop-color="#2D93FC"/><stop offset="1" stop-color="#5147FB"/></linearGradient><path d="M116.8,141.7c-0.5,0-1-0.2-1.4-0.5l-40.3-29.4l-40.5,29.4c-1.1,0.8-2.6,0.6-3.4-0.5c-0.5-0.6-0.6-1.5-0.3-2.2 l15.5-47.3L5.9,61.8c-1-0.9-1.1-2.5-0.2-3.5c0.5-0.5,1.1-0.8,1.8-0.8l0,0h49.8l15.3-47.4c0.4-1.4,1.8-2.1,3.1-1.7 c0.8,0.2,1.5,0.9,1.7,1.7l15,47.4h49.8l0,0c1.4,0,2.4,1.1,2.4,2.5c0,0.8-0.4,1.5-1,1.9l-40.3,29.4l15.5,47.3c0.3,1,0,2.1-0.9,2.7 C117.8,141.6,117.3,141.7,116.8,141.7z M75.1,106.5c0.5,0,1,0.2,1.4,0.5l35.6,25.9L98.2,91c-0.3-1,0-2.1,0.9-2.7l35.9-25.8H90.9 l0,0c-1.1,0-2-0.7-2.3-1.7L75.1,18.9L61.6,60.8c-0.4,1.1-1.4,1.8-2.6,1.7l0,0H14.9l35.6,25.9c0.9,0.6,1.2,1.7,0.9,2.7l-13.5,41.7 l35.7-25.9C74.1,106.6,74.6,106.5,75.1,106.5z" class="st1"/></g></g></svg>